<?xml version="1.0" encoding="utf-8"?>
<!-- Generator: Adobe Illustrator 16.0.0, SVG Export Plug-In . SVG Version: 6.00 Build 0)  -->
<!DOCTYPE svg PUBLIC "-//W3C//DTD SVG 1.1//EN" "http://www.w3.org/Graphics/SVG/1.1/DTD/svg11.dtd">
<svg version="1.1" id="sw-js-blob-svg" xmlns="http://www.w3.org/2000/svg" xmlns:xlink="http://www.w3.org/1999/xlink" x="0px"
	 y="0px" width="283.46px" height="283.46px" viewBox="0 0 283.46 283.46" enable-background="new 0 0 283.46 283.46"
	 xml:space="preserve">
<linearGradient id="SVGID_1_" gradientUnits="userSpaceOnUse" x1="109.2529" y1="30.7959" x2="193.1738" y2="185.2012">
	<stop  offset="0" style="stop-color:#FFFFFF"/>
	<stop  offset="1" style="stop-color:#000000"/>
</linearGradient>
<path fill="url(#SVGID_1_)" d="M215.057,45.476c1.534,1.174,2.767,2.325,3.892,3.633c3.581,4.16,6.031,8.955,8.328,13.893
	c1.902,4.085,2.814,8.363,3.409,12.758c0.485,3.616,0.146,7.225-0.272,10.813c-0.268,2.286-0.644,4.579-1.217,6.806
	c-0.38,1.477-1.121,2.88-1.83,4.25c-1.058,2.046-2.031,4.182-3.399,6.011c-1.716,2.292-3.625,4.472-5.884,6.294
	c-1.127,0.909-2.262,1.811-3.361,2.752c-1.706,1.459-3.813,2.095-5.83,2.93c-1.577,0.653-3.121,1.386-4.68,2.227
	c1.214,0.259,2.416,0.565,3.637,0.771c3.781,0.63,7.354,1.959,10.911,3.306c1.079,0.408,2.091,1.036,3.063,1.668
	c1.096,0.711,1.405,2.84,0.756,3.971c-1.153,2.006-3.055,3.107-4.802,4.384c-2.168,1.586-4.427,3.047-6.69,4.497
	c-0.604,0.387-1.368,0.521-2.053,0.789c-2.844,1.121-5.889,1.343-8.853,1.882c-1.257,0.229-2.634-0.262-3.96-0.354
	c-3.539-0.254-6.641-1.941-9.938-2.99c-0.656-0.209-1.299-0.462-2.037-0.729c-0.074,0.283-0.146,0.521-0.197,0.762
	c-1.014,4.992-1.969,10-3.069,14.97c-0.397,1.803-1.132,3.529-1.737,5.282c-0.675,1.957-1.302,3.937-2.088,5.849
	c-0.992,2.416-2.104,4.785-3.201,7.158c-1.769,3.822-3.563,7.631-5.35,11.443c-0.596,1.271-1.208,2.535-1.771,3.82
	c-0.133,0.301-0.193,0.695-0.125,1.01c0.185,0.811,0.416,1.613,0.701,2.395c0.92,2.508,1.082,5.145,0.5,7.654
	c-0.582,2.516-1.381,5.068-3.396,6.953c-0.917,0.855-1.934,1.539-3.172,1.828c-0.744,0.176-1.238,0.525-1.426,1.359
	c-0.106,0.488-0.487,0.963-0.854,1.336c-0.649,0.658-1.411,1.207-2.077,1.852c-2.561,2.482-5.783,3.459-9.166,4.1
	c-4.838,0.916-9.649,0.306-14.411-0.473c-1.78-0.289-3.626-1.084-5.097-2.135c-1.67-1.191-3.015-2.875-4.382-4.447
	c-0.708-0.813-1.43-1.512-2.506-1.58c-1.079-0.066-1.565-0.877-2.107-1.54c-1.003-1.228-1.981-2.5-2.758-3.875
	c-0.447-0.794-0.578-1.81-0.677-2.741c-0.236-2.248-0.5-4.506-0.029-6.759c0.121-0.573,0.279-1.151,0.506-1.692
	c0.429-1.021,0.336-2.027,0.09-3.063c-1.168-4.898-3.692-9.211-5.897-13.658c-1.29-2.602-2.697-5.146-3.875-7.799
	c-0.915-2.061-1.513-4.256-2.329-6.365c-1.775-4.588-2.906-9.357-3.956-14.145c-0.503-2.301-0.844-4.636-1.263-6.956
	c-0.029-0.158-0.092-0.311-0.161-0.541c-1.241,0.412-2.472,0.759-3.658,1.223c-4.214,1.646-8.644,2.289-13.097,2.731
	c-1.218,0.12-2.486-0.345-3.737-0.475c-2.162-0.224-3.901-1.462-5.777-2.358c-3.976-1.903-7.553-4.393-10.745-7.439
	c-1.552-1.481-1.573-3.112-0.622-4.829c0.101-0.183,0.366-0.282,0.566-0.402c3.8-2.284,8.119-3.07,12.303-4.236
	c1.685-0.47,3.394-0.85,5.101-1.408c-0.921-0.359-1.85-0.698-2.76-1.081c-1.886-0.794-3.813-1.517-5.626-2.456
	c-1.102-0.57-2.029-1.484-3.022-2.259c-0.807-0.629-1.549-1.354-2.402-1.909c-2.191-1.429-3.683-3.491-5.146-5.573
	c-1.395-1.984-2.769-3.988-4.026-6.061c-0.595-0.979-0.903-2.137-1.322-3.22c-0.474-1.219-0.858-2.477-1.406-3.661
	c-0.645-1.393-0.611-2.872-0.723-4.329c-0.16-2.062-0.251-4.13-0.314-6.197c-0.15-5.027,0.825-9.857,2.292-14.66
	c0.993-3.25,2.434-6.247,4.057-9.172c1.767-3.185,3.915-6.124,6.377-8.819c0.753-0.825,1.525-1.632,2.294-2.441
	c0.223-0.234,0.468-0.446,0.696-0.661c0,0.993,0.062,1.933-0.01,2.862c-0.363,4.697-0.746,9.394-1.15,14.087
	c-0.296,3.442,0.361,6.775,1.096,10.1c0.359,1.625,0.776,3.236,1.164,4.854c0.544,2.278,1.944,4.095,3.156,6.03
	c2.31,3.689,5.505,6.488,9,8.933c1.415,0.99,3.161,1.532,4.797,2.174c1.482,0.583,2.996,1.125,4.541,1.497
	c1.683,0.407,3.413,0.636,5.132,0.873c3.087,0.426,6.18,0.816,9.276,1.178c0.348,0.041,0.81-0.107,1.082-0.332
	c1.573-1.304,3.535-1.687,5.368-2.394c2.438-0.941,4.977-1.008,7.516-1.024c6.218-0.04,12.436-0.003,18.653-0.015
	c4.476-0.009,8.949-0.034,13.427-0.071c4.429-0.037,8.858-0.063,13.287-0.164c1.595-0.036,3.104,0.272,4.639,0.634
	c2.716,0.64,5.197,1.797,7.665,3.047c0.522,0.265,1.241,0.223,1.864,0.198c4.063-0.158,8-1.149,11.968-1.907
	c3.741-0.715,7.243-2.195,10.702-3.708c1.42-0.622,2.625-1.788,3.849-2.805c1.313-1.094,2.652-2.198,3.76-3.489
	c1.305-1.521,2.488-3.18,3.5-4.91c0.81-1.385,1.384-2.934,1.875-4.47c0.463-1.441,0.692-2.958,1.004-4.445
	c0.801-3.823,0.998-7.714,0.828-11.584c-0.209-4.75-0.756-9.485-1.155-14.227C215.08,46.07,215.076,45.869,215.057,45.476z
	 M116.127,163.73c0.438,0,0.671,0,0.903,0c3.954-0.025,7.906-0.059,11.859-0.076c6.525-0.029,13.048-0.055,19.575-0.068
	c5.453-0.01,10.908,0,16.36-0.008c0.437,0,0.868-0.063,1.411-0.104c-0.188-0.277-0.281-0.438-0.398-0.58
	c-0.985-1.188-1.979-2.371-2.969-3.559c-5.771-6.895-11.533-13.791-17.318-20.672c-0.371-0.439-0.379-0.709-0.012-1.141
	c1.938-2.282,3.854-4.584,5.771-6.885c4.911-5.901,9.819-11.807,14.729-17.711c0.123-0.15,0.226-0.317,0.344-0.485
	c-16.657,0-33.24,0-49.983,0c0.225,0.333,0.337,0.533,0.481,0.706c3.138,3.793,6.276,7.587,9.421,11.373
	c3.66,4.405,7.323,8.807,10.999,13.2c0.289,0.347,0.289,0.59,0.009,0.92c-2.517,2.977-5.028,5.958-7.536,8.941
	c-1.94,2.312-3.873,4.629-5.81,6.94c-1.603,1.91-3.2,3.826-4.813,5.728C118.202,161.369,117.227,162.466,116.127,163.73z
	 M128.597,118.345c8.639,0,17.033,0,25.625,0c-4.325,5.182-8.549,10.244-12.812,15.352
	C137.133,128.572,132.922,123.526,128.597,118.345z M128.606,157.898c4.311-5.156,8.533-10.211,12.805-15.322
	c4.256,5.094,8.476,10.146,12.799,15.322C145.623,157.898,137.196,157.898,128.606,157.898z"/>
</svg>
